<?xml version="1.0" encoding="UTF-8"?><svg xmlns="http://www.w3.org/2000/svg" xmlns:xlink="http://www.w3.org/1999/xlink" viewBox="0 0 250 150"><defs><style>.cls-1{stroke-width:3.23px;}.cls-1,.cls-2,.cls-3{fill:none;}.cls-1,.cls-3{stroke:#ef4044;stroke-miterlimit:10;}.cls-2,.cls-4{stroke-width:0px;}.cls-4{fill:#ef4044;}.cls-5{clip-path:url(#clippath);}.cls-3{stroke-width:3.38px;}</style><clipPath id="clippath"><rect class="cls-2" x="139.4" y="22.94" width="67.71" height="107.34"/></clipPath></defs><g id="Layer_1"><path class="cls-4" d="m39.03,113.45V38.06h18.43c11,0,18.64,6.91,18.64,18.43,0,8.27-4.71,13.82-12.04,17.07,9.74,2.83,15.39,9.84,15.39,20,0,10.79-6.91,19.9-18.85,19.9h-21.57Zm12.57-41.36c12.88,0,19.58-6.28,19.58-15.92,0-8.06-3.45-13.93-16.02-13.93h-11.2v29.84h7.64Zm8.17,37.17c6.18,0,14.76-4.5,14.76-15.5,0-9.11-6.39-17.49-17.59-17.49h-12.98v32.98h15.81Z"/><path class="cls-4" d="m118.2,96.49c3.14-5.97,4.61-12.98,6.07-20.21h5.23c-2.41,9.84-4.71,17.7-9,24.61l6.7,10.68-4.29,3.35-6.07-9.53c-5.55,5.97-12.25,9.53-19.69,9.53-9.95,0-15.71-6.18-13.61-16.23,2.3-10.89,10.47-18.32,18.95-26.59-2.31-5.86-4.71-12.04-3.25-19.06,1.78-8.06,7.22-16.44,16.76-16.44,6.8,0,10.37,6.49,8.79,13.72-1.88,9-9,15.18-16.23,22.09l9.63,24.08Zm-14.14-19.69c-6.39,6.39-13.4,13.09-15.18,21.57-1.57,7.23,1.57,12.36,9.11,12.36,6.7,0,12.67-3.35,17.17-9.01l-11.1-24.92Zm.63-24.92c-1.36,6.6-.31,10.78,1.99,16.65,11.73-12.88,13.19-14.97,13.19-21.46,0-2.09-1.15-6.28-5.34-6.28-5.55,0-8.9,6.49-9.84,11.1Z"/><line class="cls-1" x1="39.03" y1="23.9" x2="129.51" y2="23.9"/><line class="cls-1" x1="39.03" y1="127.61" x2="129.51" y2="127.61"/></g><g id="Layer_4"><g class="cls-5"><path class="cls-4" d="m167.89,72.63h-7.63v-29.85h11.21c12.56,0,16.01,5.84,16.01,13.91,0,9.62-6.69,15.94-19.59,15.94Z"/><path class="cls-4" d="m190.85,94.28c0,11.01-8.61,15.5-14.79,15.5h-15.8v-32.96h13c11.18,0,17.59,8.38,17.59,17.46Z"/><path class="cls-4" d="m300.54,61.62c-10.77,0-17.26,11.52-16.95,21.24h32.96c.54-9.52-5.1-21.24-16.01-21.24Zm0,0c-10.77,0-17.26,11.52-16.95,21.24h32.96c.54-9.52-5.1-21.24-16.01-21.24ZM121.92,24.44v103.68h354.33V24.44H121.92Zm54.98,89.53h-21.58V38.59h18.44c11.01,0,18.64,6.89,18.64,18.41,0,8.27-4.73,13.85-12.06,17.09,9.76,2.84,15.4,9.83,15.4,19.99,0,10.77-6.89,19.89-18.84,19.89Zm76.73-39.78c-.1-5.13-.41-12.56-7.09-12.56-5.67,0-18.24,8.78-18.24,29.85v22.49h-4.93v-38.33l-1.99-17.7h4.73l1.89,15.7c3.65-7.63,9.42-16.21,18.95-16.21s11.62,9.22,11.62,16.75h-4.93Zm47.45,36.74c6.28,0,12.23-2.3,17.46-5.44l2.09,4.59c-6.38,2.84-12.66,5.03-19.79,5.03-16.21,0-22.19-14.56-22.19-28.57s6.18-29.11,22.53-29.11c9.32,0,20.3,6.69,20.3,29.62h-37.89c.95,19.49,8.98,23.88,17.49,23.88Zm76.93,3.78h-5.34l-10.47-35.8-10.47,35.8h-5.34l-9.86-56.13h5.47l7.63,47.85h.2l9.73-33.6h5.37l9.73,33.6h.2l7.67-47.85h5.34l-9.86,56.13Zm48.16.41c-6.92,0-15.8-4.29-20.84-8.88l2.74-3.99c4.49,4.49,11.82,8.68,18.3,8.68s11.52-3.44,11.52-10.13c0-8.27-6.38-10.71-12.97-13.2-7.63-2.94-16.65-6.48-16.65-16.35,0-7.83,7.94-13.81,16.21-13.81,6.42,0,11.65,2.2,16.65,5.88l-2.09,4.05c-4.39-3.14-9.32-5.74-14.86-5.74s-10.98,4.19-10.98,10.06c0,6.48,7.19,9.52,12.23,11.41,8.48,3.24,17.39,6.59,17.39,17.36,0,9.22-8.17,14.66-16.65,14.66Zm-125.63-53.49c-10.77,0-17.26,11.52-16.95,21.24h32.96c.54-9.52-5.1-21.24-16.01-21.24Zm0,0c-10.77,0-17.26,11.52-16.95,21.24h32.96c.54-9.52-5.1-21.24-16.01-21.24Zm0,0c-10.77,0-17.26,11.52-16.95,21.24h32.96c.54-9.52-5.1-21.24-16.01-21.24Z"/><path class="cls-4" d="m300.54,61.62c-10.77,0-17.26,11.52-16.95,21.24h32.96c.54-9.52-5.1-21.24-16.01-21.24Zm0,0c-10.77,0-17.26,11.52-16.95,21.24h32.96c.54-9.52-5.1-21.24-16.01-21.24ZM121.92,24.44v103.68h354.33V24.44H121.92Zm54.98,89.53h-21.58V38.59h18.44c11.01,0,18.64,6.89,18.64,18.41,0,8.27-4.73,13.85-12.06,17.09,9.76,2.84,15.4,9.83,15.4,19.99,0,10.77-6.89,19.89-18.84,19.89Zm76.73-39.78c-.1-5.13-.41-12.56-7.09-12.56-5.67,0-18.24,8.78-18.24,29.85v22.49h-4.93v-38.33l-1.99-17.7h4.73l1.89,15.7c3.65-7.63,9.42-16.21,18.95-16.21s11.62,9.22,11.62,16.75h-4.93Zm47.45,36.74c6.28,0,12.23-2.3,17.46-5.44l2.09,4.59c-6.38,2.84-12.66,5.03-19.79,5.03-16.21,0-22.19-14.56-22.19-28.57s6.18-29.11,22.53-29.11c9.32,0,20.3,6.69,20.3,29.62h-37.89c.95,19.49,8.98,23.88,17.49,23.88Zm76.93,3.78h-5.34l-10.47-35.8-10.47,35.8h-5.34l-9.86-56.13h5.47l7.63,47.85h.2l9.73-33.6h5.37l9.73,33.6h.2l7.67-47.85h5.34l-9.86,56.13Zm48.16.41c-6.92,0-15.8-4.29-20.84-8.88l2.74-3.99c4.49,4.49,11.82,8.68,18.3,8.68s11.52-3.44,11.52-10.13c0-8.27-6.38-10.71-12.97-13.2-7.63-2.94-16.65-6.48-16.65-16.35,0-7.83,7.94-13.81,16.21-13.81,6.42,0,11.65,2.2,16.65,5.88l-2.09,4.05c-4.39-3.14-9.32-5.74-14.86-5.74s-10.98,4.19-10.98,10.06c0,6.48,7.19,9.52,12.23,11.41,8.48,3.24,17.39,6.59,17.39,17.36,0,9.22-8.17,14.66-16.65,14.66Zm-125.63-53.49c-10.77,0-17.26,11.52-16.95,21.24h32.96c.54-9.52-5.1-21.24-16.01-21.24Zm0,0c-10.77,0-17.26,11.52-16.95,21.24h32.96c.54-9.52-5.1-21.24-16.01-21.24Zm0,0c-10.77,0-17.26,11.52-16.95,21.24h32.96c.54-9.52-5.1-21.24-16.01-21.24Z"/><rect class="cls-3" x="121.92" y="24.44" width="354.33" height="103.68"/></g></g></svg>