<?xml version="1.0" encoding="UTF-8"?><svg xmlns="http://www.w3.org/2000/svg" viewBox="0 0 250 150"><defs><style>.cls-1{fill:none;stroke:#ef4044;stroke-miterlimit:10;}.cls-2{fill:#ef4044;}</style></defs><g id="Layer_1"><path class="cls-2" d="m14.95,86.16v-22.32h5.46c3.26,0,5.52,2.05,5.52,5.46,0,2.45-1.4,4.09-3.57,5.05,2.88.84,4.56,2.92,4.56,5.92,0,3.19-2.05,5.89-5.58,5.89h-6.39Zm3.72-12.25c3.81,0,5.8-1.86,5.8-4.71,0-2.39-1.02-4.12-4.74-4.12h-3.32v8.84h2.26Zm2.42,11.01c1.83,0,4.37-1.33,4.37-4.59,0-2.7-1.89-5.18-5.21-5.18h-3.84v9.77h4.68Z"/><path class="cls-2" d="m38.82,71h-4.78v-1.24h6.23v16.4h-1.46v-15.16Zm2.33-5.98c0,.9-.74,1.61-1.64,1.61s-1.61-.71-1.61-1.61.71-1.61,1.61-1.61,1.64.71,1.64,1.61Z"/><path class="cls-2" d="m62.44,71h-6.01v11.19c0,1.58.59,3.07,2.6,3.07,1.83,0,3.1-1.36,3.81-2.91l1.4.34c-1.02,2.11-2.82,3.81-5.27,3.81-2.11,0-4-1.02-4-5.18v-10.33h-3.69v-1.24h3.69v-5.27h1.46v5.27h6.01v1.24Z"/><path class="cls-2" d="m82.5,85.01c-1.89.84-3.75,1.49-5.86,1.49-4.81,0-6.57-4.31-6.57-8.46s1.83-8.62,6.67-8.62c2.76,0,6.02,1.98,6.02,8.77h-11.22c.28,5.77,2.67,7.07,5.18,7.07,1.86,0,3.63-.68,5.18-1.61l.62,1.36Zm-1.21-8.06c.16-2.82-1.52-6.29-4.74-6.29s-5.12,3.41-5.02,6.29h9.77Z"/><path class="cls-2" d="m98.96,72.36c-1.3-.93-2.76-1.71-4.4-1.71s-3.26,1.24-3.26,2.98c0,1.92,2.14,2.82,3.63,3.38,2.51.96,5.15,1.95,5.15,5.15,0,2.73-2.42,4.34-4.93,4.34-2.05,0-4.68-1.27-6.17-2.64l.81-1.18c1.33,1.33,3.5,2.57,5.43,2.57s3.41-1.02,3.41-3.01c0-2.45-1.89-3.16-3.84-3.91-2.26-.87-4.93-1.92-4.93-4.84,0-2.33,2.36-4.09,4.81-4.09,1.89,0,3.44.65,4.93,1.74l-.62,1.21Z"/><path class="cls-2" d="m121.65,81.14c.93-1.77,1.36-3.84,1.8-5.98h1.55c-.71,2.91-1.4,5.24-2.67,7.29l1.98,3.16-1.27.99-1.8-2.82c-1.64,1.77-3.63,2.82-5.83,2.82-2.95,0-4.65-1.83-4.03-4.81.68-3.22,3.1-5.43,5.61-7.88-.68-1.74-1.4-3.57-.96-5.64.53-2.39,2.14-4.87,4.96-4.87,2.01,0,3.07,1.92,2.6,4.06-.56,2.67-2.67,4.5-4.81,6.54l2.85,7.13Zm-4.19-5.83c-1.89,1.89-3.97,3.88-4.5,6.39-.46,2.14.47,3.66,2.7,3.66,1.98,0,3.75-.99,5.09-2.67l-3.29-7.38Zm.19-7.38c-.4,1.95-.09,3.19.59,4.93,3.47-3.81,3.91-4.43,3.91-6.36,0-.62-.34-1.86-1.58-1.86-1.64,0-2.64,1.92-2.91,3.29Z"/><line class="cls-1" x1="10.64" y1="59.65" x2="129.49" y2="59.65"/><line class="cls-1" x1="10.64" y1="90.35" x2="129.49" y2="90.35"/></g><g id="Layer_2"><path class="cls-2" d="m150.87,73.92h-2.26v-8.84h3.32c3.72,0,4.74,1.73,4.74,4.12,0,2.85-1.98,4.72-5.8,4.72Z"/><path class="cls-2" d="m157.67,80.33c0,3.26-2.55,4.59-4.38,4.59h-4.68v-9.76h3.85c3.31,0,5.21,2.48,5.21,5.17Z"/><path class="cls-2" d="m190.15,70.66c-3.19,0-5.11,3.41-5.02,6.29h9.76c.16-2.82-1.51-6.29-4.74-6.29Zm0,0c-3.19,0-5.11,3.41-5.02,6.29h9.76c.16-2.82-1.51-6.29-4.74-6.29Zm-52.89-11.01v30.7h104.92v-30.7h-104.92Zm16.28,26.51h-6.39v-22.32h5.46c3.26,0,5.52,2.04,5.52,5.45,0,2.45-1.4,4.1-3.57,5.06,2.89.84,4.56,2.91,4.56,5.92,0,3.19-2.04,5.89-5.58,5.89Zm22.72-11.78c-.03-1.52-.12-3.72-2.1-3.72-1.68,0-5.4,2.6-5.4,8.84v6.66h-1.46v-11.35l-.59-5.24h1.4l.56,4.65c1.08-2.26,2.79-4.8,5.61-4.8s3.44,2.73,3.44,4.96h-1.46Zm14.05,10.88c1.86,0,3.62-.68,5.17-1.61l.62,1.36c-1.89.84-3.75,1.49-5.86,1.49-4.8,0-6.57-4.31-6.57-8.46s1.83-8.62,6.67-8.62c2.76,0,6.01,1.98,6.01,8.77h-11.22c.28,5.77,2.66,7.07,5.18,7.07Zm22.78,1.12h-1.58l-3.1-10.6-3.1,10.6h-1.58l-2.92-16.62h1.62l2.26,14.17h.06l2.88-9.95h1.59l2.88,9.95h.06l2.27-14.17h1.58l-2.92,16.62Zm14.26.12c-2.05,0-4.68-1.27-6.17-2.63l.81-1.18c1.33,1.33,3.5,2.57,5.42,2.57s3.41-1.02,3.41-3c0-2.45-1.89-3.17-3.84-3.91-2.26-.87-4.93-1.92-4.93-4.84,0-2.32,2.35-4.09,4.8-4.09,1.9,0,3.45.65,4.93,1.74l-.62,1.2c-1.3-.93-2.76-1.7-4.4-1.7s-3.25,1.24-3.25,2.98c0,1.92,2.13,2.82,3.62,3.38,2.51.96,5.15,1.95,5.15,5.14,0,2.73-2.42,4.34-4.93,4.34Zm-37.2-15.84c-3.19,0-5.11,3.41-5.02,6.29h9.76c.16-2.82-1.51-6.29-4.74-6.29Zm0,0c-3.19,0-5.11,3.41-5.02,6.29h9.76c.16-2.82-1.51-6.29-4.74-6.29Zm0,0c-3.19,0-5.11,3.41-5.02,6.29h9.76c.16-2.82-1.51-6.29-4.74-6.29Z"/><path class="cls-2" d="m190.15,70.66c-3.19,0-5.11,3.41-5.02,6.29h9.76c.16-2.82-1.51-6.29-4.74-6.29Zm0,0c-3.19,0-5.11,3.41-5.02,6.29h9.76c.16-2.82-1.51-6.29-4.74-6.29Zm-52.89-11.01v30.7h104.92v-30.7h-104.92Zm16.28,26.51h-6.39v-22.32h5.46c3.26,0,5.52,2.04,5.52,5.45,0,2.45-1.4,4.1-3.57,5.06,2.89.84,4.56,2.91,4.56,5.92,0,3.19-2.04,5.89-5.58,5.89Zm22.72-11.78c-.03-1.52-.12-3.72-2.1-3.72-1.68,0-5.4,2.6-5.4,8.84v6.66h-1.46v-11.35l-.59-5.24h1.4l.56,4.65c1.08-2.26,2.79-4.8,5.61-4.8s3.44,2.73,3.44,4.96h-1.46Zm14.05,10.88c1.86,0,3.62-.68,5.17-1.61l.62,1.36c-1.89.84-3.75,1.49-5.86,1.49-4.8,0-6.57-4.31-6.57-8.46s1.83-8.62,6.67-8.62c2.76,0,6.01,1.98,6.01,8.77h-11.22c.28,5.77,2.66,7.07,5.18,7.07Zm22.78,1.12h-1.58l-3.1-10.6-3.1,10.6h-1.58l-2.92-16.62h1.62l2.26,14.17h.06l2.88-9.95h1.59l2.88,9.95h.06l2.27-14.17h1.58l-2.92,16.62Zm14.26.12c-2.05,0-4.68-1.27-6.17-2.63l.81-1.18c1.33,1.33,3.5,2.57,5.42,2.57s3.41-1.02,3.41-3c0-2.45-1.89-3.17-3.84-3.91-2.26-.87-4.93-1.92-4.93-4.84,0-2.32,2.35-4.09,4.8-4.09,1.9,0,3.45.65,4.93,1.74l-.62,1.2c-1.3-.93-2.76-1.7-4.4-1.7s-3.25,1.24-3.25,2.98c0,1.92,2.13,2.82,3.62,3.38,2.51.96,5.15,1.95,5.15,5.14,0,2.73-2.42,4.34-4.93,4.34Zm-37.2-15.84c-3.19,0-5.11,3.41-5.02,6.29h9.76c.16-2.82-1.51-6.29-4.74-6.29Zm0,0c-3.19,0-5.11,3.41-5.02,6.29h9.76c.16-2.82-1.51-6.29-4.74-6.29Zm0,0c-3.19,0-5.11,3.41-5.02,6.29h9.76c.16-2.82-1.51-6.29-4.74-6.29Z"/><rect class="cls-1" x="137.26" y="59.65" width="104.92" height="30.7"/></g></svg>